<?xml version="1.0" standalone="no"?>
<!DOCTYPE svg PUBLIC "-//W3C//DTD SVG 20010904//EN"
 "http://www.w3.org/TR/2001/REC-SVG-20010904/DTD/svg10.dtd">
<svg version="1.0" xmlns="http://www.w3.org/2000/svg"
 width="161.000000pt" height="314.000000pt" viewBox="0 0 161.000000 314.000000"
 preserveAspectRatio="xMidYMid meet">

<g transform="translate(0.000000,314.000000) scale(0.100000,-0.100000)"
fill="#000000" stroke="none">
<path d="M1564 3119 c-10 -17 13 -36 27 -22 12 12 4 33 -11 33 -5 0 -12 -5
-16 -11z"/>
<path d="M300 1472 c-70 -35 -70 -33 -70 -542 0 -509 0 -507 70 -543 31 -16
63 -17 308 -15 l274 3 34 37 34 38 0 479 c0 470 0 479 -21 505 -42 54 -56 56
-336 56 -226 0 -262 -2 -293 -18z m388 -79 c3 -10 -20 -13 -92 -13 -88 0 -108
5 -89 24 13 12 176 2 181 -11z m177 -423 l0 -365 -272 -3 -273 -2 0 370 0 370
273 -2 272 -3 0 -365z m-245 -440 c24 -24 25 -38 4 -68 -28 -41 -83 -18 -84
35 0 20 33 53 52 53 5 0 17 -9 28 -20z"/>
</g>
</svg>
