<?xml version="1.0" standalone="no"?>
<!DOCTYPE svg PUBLIC "-//W3C//DTD SVG 20010904//EN"
 "http://www.w3.org/TR/2001/REC-SVG-20010904/DTD/svg10.dtd">
<svg version="1.0" xmlns="http://www.w3.org/2000/svg"
 width="1024.000000pt" height="1024.000000pt" viewBox="0 0 1024.000000 1024.000000"
 preserveAspectRatio="xMidYMid meet">

<g transform="translate(0.000000,1024.000000) scale(0.100000,-0.100000)"
fill="#000000" stroke="none">
<path d="M1260 5984 c-45 -20 -68 -41 -91 -86 -18 -35 -19 -70 -19 -748 0
-678 1 -713 19 -748 23 -46 46 -67 94 -87 31 -13 98 -15 434 -15 448 0 452 1
509 76 l29 37 3 724 c2 695 2 724 -17 761 -23 46 -46 67 -94 87 -54 22 -814
22 -867 -1z m575 -129 c0 -19 -8 -20 -129 -23 -131 -3 -154 3 -143 33 6 13 25
15 139 13 125 -3 133 -4 133 -23z m280 -645 l0 -555 -417 -3 -418 -2 0 560 0
560 418 -2 417 -3 0 -555z m-396 -655 c32 -16 41 -33 41 -76 0 -35 -39 -79
-70 -79 -34 0 -70 44 -70 85 0 25 8 44 25 60 28 29 36 30 74 10z"/>
<path d="M7829 5625 c-63 -34 -53 -132 16 -161 104 -43 193 70 116 147 -33 33
-87 39 -132 14z"/>
<path d="M2630 5165 l0 -465 91 0 91 0 -4 305 c-2 168 0 305 3 305 3 0 10 -9
15 -19 5 -11 92 -148 194 -305 l185 -285 88 -1 87 0 0 465 0 465 -85 0 -85 0
0 -322 c-1 -257 -3 -320 -13 -306 -7 9 -99 154 -205 322 l-194 306 -84 0 -84
0 0 -465z"/>
<path d="M5180 5165 l0 -465 88 0 87 0 -3 307 c-1 169 -1 305 1 302 3 -2 53
-107 112 -234 145 -310 127 -285 198 -285 l58 0 94 198 c52 108 110 229 129
267 l35 70 -2 -313 -2 -312 88 0 87 0 0 465 0 466 -107 -3 -108 -3 -135 -312
c-74 -172 -138 -309 -141 -305 -4 4 -47 102 -97 217 -49 116 -109 254 -133
308 l-42 97 -104 0 -103 0 0 -465z"/>
<path d="M7020 5165 c0 -436 1 -465 18 -465 9 0 47 -3 84 -6 l67 -7 -4 37 c-3
20 -3 36 0 36 2 0 23 -13 47 -29 57 -37 100 -51 163 -51 162 0 283 110 306
280 19 133 -18 257 -99 338 -108 108 -258 116 -381 21 -13 -11 -27 -19 -32
-19 -5 0 -10 73 -11 163 l-3 162 -77 3 -78 3 0 -466z m418 51 c125 -65 139
-284 23 -363 -116 -78 -257 -2 -277 151 -11 81 37 173 111 214 28 16 111 15
143 -2z"/>
<path d="M8100 5628 c0 -2 -1 -211 -3 -466 l-2 -462 67 0 c36 0 73 -3 82 -6
14 -6 16 39 16 465 l0 471 -80 0 c-44 0 -80 -1 -80 -2z"/>
<path d="M3705 5376 c-98 -31 -169 -98 -206 -195 -28 -75 -30 -212 -4 -291 25
-75 108 -159 188 -188 106 -40 257 -25 333 33 33 25 91 102 83 109 -2 2 -31
15 -64 30 l-60 27 -18 -26 c-11 -14 -37 -35 -58 -45 -103 -53 -233 7 -255 119
l-6 31 242 0 243 0 -6 83 c-18 228 -213 376 -412 313z m155 -142 c41 -17 74
-58 90 -114 l9 -30 -160 0 -160 0 7 23 c17 56 46 98 82 116 46 25 80 26 132 5z"/>
<path d="M6510 5380 c-101 -21 -191 -94 -236 -193 -24 -54 -28 -74 -27 -152 1
-152 58 -256 174 -320 46 -25 68 -30 145 -33 157 -7 257 45 324 169 34 62 35
67 35 174 0 94 -3 117 -23 160 -67 146 -233 228 -392 195z m167 -175 c106 -63
123 -251 29 -333 -127 -112 -296 -24 -296 154 1 162 138 254 267 179z"/>
<path d="M8570 5374 c-138 -50 -209 -158 -217 -329 -6 -130 16 -195 91 -271
68 -67 138 -94 245 -94 122 0 213 41 266 121 l26 40 -66 30 -66 30 -26 -32
c-65 -77 -192 -80 -260 -7 -21 23 -53 87 -53 108 0 6 82 10 241 10 l242 0 -5
83 c-7 142 -71 242 -187 295 -70 33 -166 39 -231 16z m188 -151 c30 -23 56
-64 66 -105 l6 -28 -155 0 -155 0 0 24 c0 31 38 85 80 114 28 19 44 23 83 19
27 -2 61 -13 75 -24z"/>
<path d="M4194 5363 l-71 -4 79 -262 c43 -144 87 -292 98 -329 l21 -68 84 0
84 0 9 33 c29 102 106 353 111 359 3 4 33 -83 66 -193 l60 -199 85 0 85 0 97
328 c53 180 96 328 95 328 -1 1 -38 3 -81 5 l-79 4 -59 -214 c-32 -118 -59
-216 -61 -218 -2 -1 -33 95 -68 215 l-65 217 -71 3 -72 3 -10 -38 c-39 -142
-116 -393 -121 -393 -3 0 -27 82 -54 183 -27 100 -53 197 -58 215 -5 17 -14
31 -21 30 -7 -1 -44 -4 -83 -5z"/>
<path d="M7804 5361 c-2 -2 -4 -152 -4 -333 l0 -328 85 0 84 0 3 329 3 330
-83 3 c-46 2 -86 1 -88 -1z"/>
</g>
</svg>
