<?xml version="1.0" encoding="utf-8"?>
<!-- Svg Vector Icons : http://www.onlinewebfonts.com/icon -->
<!DOCTYPE svg PUBLIC "-//W3C//DTD SVG 1.1//EN" "http://www.w3.org/Graphics/SVG/1.1/DTD/svg11.dtd">
<svg version="1.1" xmlns="http://www.w3.org/2000/svg" xmlns:xlink="http://www.w3.org/1999/xlink" x="0px" y="0px" viewBox="0 0 256 256" enable-background="new 0 0 256 256" xml:space="preserve">
<metadata> Svg Vector Icons : http://www.onlinewebfonts.com/icon </metadata>
<g><g><path fill="#000000" d="M246,163.5c0,19.2-15.8,35-35.1,35H10V57.5h236L246,163.5z M99.4,104.5H45.1V118h18.8v33.5h16.8V118h18.7L99.4,104.5L99.4,104.5z M123,116.9c2.5-2.3,5.4-3.4,9.3-3.4c9.2,0,11.1,5.4,11.7,9h14.9c-0.4-7.1-3.8-12.2-8.6-15.5c-4.8-3.3-10.4-5-17.8-5c-9.1,0-15.6,2-20.9,6.5c-5.4,4.6-8.2,11.8-8.2,19v0.4c0,7.9,2.5,13.8,8,18.8c5.2,4.6,12.6,6.8,21,6.8c7.4,0,13.7-1.7,18.1-5c4.8-3.6,8.2-8.7,8.5-15.5h-14.9c-0.4,2.8-2.2,8.9-11.8,8.9c-3.9,0-6.8-1.1-9.3-3.4c-2.4-2.2-4.2-5.7-4.2-10.4v-0.7C118.8,122.6,120.6,119.1,123,116.9z M210.6,138.6h-26.5v-34.1H168v47h42.7V138.6z"/></g></g>
</svg>